<?xml version="1.0" encoding="UTF-8" standalone="no"?>
<!-- Created with Inkscape (http://www.inkscape.org/) -->

<svg
   xmlns:dc="http://purl.org/dc/elements/1.1/"
   xmlns:cc="http://creativecommons.org/ns#"
   xmlns:rdf="http://www.w3.org/1999/02/22-rdf-syntax-ns#"
   xmlns:svg="http://www.w3.org/2000/svg"
   xmlns="http://www.w3.org/2000/svg"
   xmlns:sodipodi="http://sodipodi.sourceforge.net/DTD/sodipodi-0.dtd"
   xmlns:inkscape="http://www.inkscape.org/namespaces/inkscape"
   id="svg2"
   version="1.1"
   inkscape:version="0.91 r13725"
   width="85"
   height="85"
   viewBox="0 0 84.999997 85"
   sodipodi:docname="logo.svg">
  <metadata
     id="metadata8">
    <rdf:RDF>
      <cc:Work
         rdf:about="">
        <dc:format>image/svg+xml</dc:format>
        <dc:type
           rdf:resource="http://purl.org/dc/dcmitype/StillImage" />
        <dc:title />
      </cc:Work>
    </rdf:RDF>
  </metadata>
  <defs
     id="defs6" />
  <sodipodi:namedview
     pagecolor="#ffffff"
     bordercolor="#666666"
     borderopacity="1"
     objecttolerance="10"
     gridtolerance="10"
     guidetolerance="10"
     inkscape:pageopacity="0"
     inkscape:pageshadow="2"
     inkscape:window-width="1920"
     inkscape:window-height="1019"
     id="namedview4"
     showgrid="false"
     inkscape:zoom="1.4142136"
     inkscape:cx="-179.51694"
     inkscape:cy="25.587716"
     inkscape:window-x="0"
     inkscape:window-y="34"
     inkscape:window-maximized="1"
     inkscape:current-layer="svg2"
     fit-margin-top="0"
     fit-margin-left="0"
     fit-margin-right="0"
     fit-margin-bottom="0" />
  <path
     style="fill:#0080ff;fill-opacity:0.81410259"
     d="M 29.341432,84.739507 C 23.931027,83.826786 18.469722,81.164309 13.950647,77.236238 12.129609,75.653362 9.1158559,72.281422 7.6952214,70.237354 3.8082427,64.644602 1.3507952,58.176312 0.31329467,50.807191 -0.10244708,47.854314 -0.10476335,41.987309 0.30838385,38.946669 1.7992021,27.980608 6.8177399,18.057282 14.39524,11.092265 21.26036,4.7820529 29.560013,1.0768529 38.860375,0.17034088 48.218653,-0.74181612 58.366296,2.0428929 66.369302,7.7193239 72.706026,12.21388 77.41082,17.956328 80.767283,25.292833 c 2.910355,6.361393 4.259758,12.69867 4.232307,19.876354 -0.01923,5.023751 -0.542932,8.569189 -1.94795,13.187197 -4.062262,13.351843 -13.956048,23.323641 -25.924377,26.128795 -1.505861,0.352942 -2.374299,0.424874 -5.189164,0.429788 -2.975555,0.0053 -3.544154,-0.04501 -4.745283,-0.418799 -2.730727,-0.849862 -4.588342,-2.162612 -4.603042,-3.252894 -0.0065,-0.499189 -0.02504,-0.487408 -0.358792,0.231321 -0.77406,1.666756 -2.161678,2.579785 -4.814183,3.16767 -1.960431,0.4345 -5.802181,0.480761 -8.075588,0.09724 z M 46.131048,75.90187 c 7.283399,-5.868294 10.930599,-12.506052 10.900765,-19.838912 -0.01752,-4.313234 -1.181436,-7.53653 -3.713749,-10.284979 -1.714375,-1.860696 -4.464311,-3.019489 -6.439623,-2.713587 -2.23939,0.346799 -4.234001,2.227925 -4.300846,4.056149 -0.01432,0.39255 -0.06016,0.310847 -0.173532,-0.309749 -0.461584,-2.526047 -3.099561,-4.15493 -5.938489,-3.666863 -5.279188,0.90759 -8.908308,6.81765 -8.578497,13.970182 0.335106,7.267433 4.346942,13.860451 11.845345,19.46653 1.213455,0.907227 2.362047,1.875791 2.552415,2.152371 l 0.346123,0.502863 0.714655,-0.832781 c 0.393053,-0.458026 1.646499,-1.58358 2.785433,-2.501224 z M 20.243035,70.792218 c 1.0366,-1.113456 1.228057,-3.430078 0.538111,-6.511152 -0.528518,-2.360165 -0.729887,-2.447983 -2.84852,-1.242269 -0.738825,0.420461 -1.556697,0.76258 -1.817486,0.760277 -2.040887,-0.01811 -5.382716,-4.0937 -7.3254443,-8.933961 C 4.9541414,45.308918 6.0061943,33.216874 11.517459,23.512901 16.437846,14.849319 24.222247,8.6648389 33.327102,6.1857799 c 3.469796,-0.944754 5.002709,-1.13041 9.358949,-1.133501 3.4797,-0.0025 4.433577,0.06222 6.371689,0.432097 7.40031,1.412312 13.815517,4.6523351 19.427904,9.8121341 3.709788,3.41063 6.64532,7.294769 9.176463,12.141823 0.48162,0.922281 0.875852,1.607123 0.876082,1.521869 8.18e-4,-0.327591 -2.20761,-4.861808 -3.083225,-6.330177 C 70.243946,13.891336 61.83245,7.3408079 52.481866,4.7395279 48.544952,3.6443029 47.51093,3.5176219 42.508124,3.5176219 c -5.002807,0 -6.036829,0.126681 -9.973743,1.221906 C 20.723968,8.0251199 10.921605,17.230391 6.416878,29.266132 3.0785687,38.185434 2.9379719,48.224404 6.0295371,56.922993 c 1.4532423,4.088914 3.4141651,7.388984 6.1401689,10.333377 2.704003,2.92063 4.640879,4.159963 6.534589,4.181229 0.826205,0.0092 0.995276,-0.06163 1.53874,-0.645381 z"
     id="path4188"
     inkscape:connector-curvature="0"
     inkscape:export-xdpi="90"
     inkscape:export-ydpi="90" />
</svg>
